<?xml version="1.0" encoding="utf-8"?>
<!-- Generator: Adobe Illustrator 18.1.1, SVG Export Plug-In . SVG Version: 6.00 Build 0)  -->
<svg version="1.1" id="Layer_1" xmlns="http://www.w3.org/2000/svg" xmlns:xlink="http://www.w3.org/1999/xlink" x="0px" y="0px"
	  viewBox="0 0 75 75" enable-background="new 0 0 75 75" xml:space="preserve">
<g>
	<circle fill="#232C64" cx="37.6" cy="37.8" r="33.8"/>
	<path fill="#FFFFFF" d="M62.5,41.2c0-0.9,0-3.1-0.1-3.7c-0.2-1.1-0.6-2.2-1.8-4.1c-1.3-1.8-3.3-1.9-3.4-1.9l0-0.1
		c0.3,0.1,0.5,0.1,0.8,0.1c2,0,3.8-1.1,4.1-2.5c0.3-1.4-1.1-2.6-3.1-2.6c-1.1,0-2.2,0.4-3,0.9c-0.2-0.8-0.5-1.8-0.8-2.8
		c-0.8-2.7-2.4-5-3.2-5.8c-0.8-0.8-7.3-1.2-13.9-1.2s-13,0.6-13.9,1.5c-0.8,0.8-2.4,2.9-3.2,5.5c-0.3,1-0.6,2-0.8,2.8
		c-0.8-0.6-1.8-0.9-3-0.9c-2,0-3.4,1.2-3.1,2.6c0.3,1.4,2.1,2.5,4.1,2.5c0.3,0,0.6,0,0.8-0.1l0,0.1c-0.1,0-1.7,0.1-3.2,1.9
		c-1.4,1.7-2.5,2.7-2.7,4.1c-0.1,0.8-0.2,2.9-0.2,3.7c0,0.6,0,1,0,1v0l0,0l0,1.2l0,5.6c0,0.1,0,0.2,0,0.3v0c0,0.6,0.4,1,1,1v1
		c0,1.7,0.9,3.3,2.7,3.3h1h1.8h1.1c1.7,0,3.1-2.6,3.1-4.3v-1H36h1h2.1h12.7v1c0,1.7,1.4,4.3,3.1,4.3h3.9c1.7,0,2.7-1.6,2.7-3.3v-1
		c0.6,0,1-0.5,1-1l0-7.1C62.5,42.3,62.5,41.8,62.5,41.2z M36.4,49.4V46c-2-0.4-3.5-2.1-3.5-4h0v-2.6h1.2v-3.2c0-0.5,0.4-1,1-1
		c0.5,0,1,0.4,1,1v3.2h2.8v-3.2c0-0.5,0.4-1,1-1c0.5,0,1,0.4,1,1v3.2H42V42h0c0,2-1.5,3.6-3.5,4v3.4H36.4z M21.6,33.4
		c2,0,3.6,1.6,3.6,3.6s-1.6,3.6-3.6,3.6S18,38.9,18,36.9S19.6,33.4,21.6,33.4z M23.3,28c0,0,1.8-7.1,3.6-7.1c1.8,0,19.6,0,21.4,0
		s3.6,5.3,3.6,7.1H23.3z M55.4,40.5c-2,0-3.6-1.6-3.6-3.6s1.6-3.6,3.6-3.6s3.6,1.6,3.6,3.6S57.3,40.5,55.4,40.5z"/>
</g>
</svg>
