<?xml version="1.0" encoding="utf-8"?>
<!-- Generator: Adobe Illustrator 18.1.1, SVG Export Plug-In . SVG Version: 6.00 Build 0)  -->
<svg version="1.1" id="Layer_1" xmlns="http://www.w3.org/2000/svg" xmlns:xlink="http://www.w3.org/1999/xlink" x="0px" y="0px"
	  viewBox="0 0 75 75" enable-background="new 0 0 75 75" xml:space="preserve">
<g>
	<circle fill="#232C64" cx="37.5" cy="37.8" r="33.8"/>
	<g>
		<path fill="#FFFFFF" d="M41.9,45.4V19.4c0-2.4-2-4.4-4.4-4.4c-2.4,0-4.4,2-4.4,4.4v25.9c-2.3,1.5-3.7,4-3.7,6.8c0,4.4,3.6,8,8,8
			c4.4,0,8-3.6,8-8C45.6,49.4,44.1,46.8,41.9,45.4z M37.5,58.2c-3.3,0-6-2.7-6-6c0-2.5,1.5-4.6,3.7-5.6V19.4c0-1.3,1-2.3,2.3-2.3
			c1.3,0,2.3,1,2.3,2.3v27.1c2.2,0.9,3.7,3.1,3.7,5.6C43.5,55.5,40.8,58.2,37.5,58.2z"/>
		<path fill="#FFFFFF" d="M39.9,47.7c-0.7-0.4-1.1-1-1.1-1.8V32.7c-0.4,0-0.9,0.1-1.3,0.1s-0.9,0-1.3-0.1v13.2
			c0,0.7-0.4,1.4-1.1,1.8c-1.6,0.9-2.6,2.6-2.6,4.4c0,2.8,2.3,5,5,5c2.8,0,5-2.3,5-5C42.5,50.3,41.5,48.6,39.9,47.7z"/>
	</g>
</g>
</svg>
