<?xml version="1.0" encoding="utf-8"?>
<!-- Generator: Adobe Illustrator 18.1.1, SVG Export Plug-In . SVG Version: 6.00 Build 0)  -->
<svg version="1.1" id="Layer_1" xmlns="http://www.w3.org/2000/svg" xmlns:xlink="http://www.w3.org/1999/xlink" x="0px" y="0px"
	  viewBox="0 0 75 75" enable-background="new 0 0 75 75" xml:space="preserve">
<g>
	<circle fill="#232C64" cx="37.1" cy="37.8" r="33.8"/>
	<path fill="#FFFFFF" d="M37.2,14.8L13.3,37.5l2.8,2.9l1.1-1.1v16.4h40V39.4l1.1,1.1l2.8-2.9L37.2,14.8z M51.5,38.2c1.1,0,2,0.9,2,2
		c0,1.1-0.9,2-2,2c-1.1,0-2-0.9-2-2C49.5,39.1,50.4,38.2,51.5,38.2z M43.6,30.9c1.6,0,3,1.3,3,3c0,1.6-1.3,3-3,3c-1.6,0-3-1.3-3-3
		C40.6,32.2,41.9,30.9,43.6,30.9z M33.3,30.9c1.6,0,3,1.3,3,3c0,1.6-1.3,3-3,3c-1.6,0-3-1.3-3-3C30.3,32.2,31.7,30.9,33.3,30.9z
		 M23.9,38.2c1.1,0,2,0.9,2,2c0,1.1-0.9,2-2,2c-1.1,0-2-0.9-2-2C22,39.1,22.8,38.2,23.9,38.2z M26.9,47.6c-0.1,0-0.1,0-0.2,0
		c-0.2,0-0.4-0.1-0.5-0.4l-0.6-1.7c0,0.2-0.2,0.7-0.2,1.1l1.2,3.3h-1.3c-0.1,1-0.2,2.4-0.3,2.4h-2.2c-0.1,0-0.2-1.4-0.3-2.4h-1.3
		l1.2-3.3c0-0.4-0.2-0.9-0.2-1.1l-0.6,1.7c-0.1,0.2-0.3,0.4-0.5,0.4c-0.1,0-0.1,0-0.2,0c-0.3-0.1-0.4-0.4-0.3-0.7l1.2-3.4
		c0.1-0.4,1.1-0.8,2.1-0.8c1,0,1.9,0.4,2.1,0.8l1.2,3.4C27.3,47.2,27.2,47.5,26.9,47.6z M37.8,45.1c-0.1,0-0.2,0-0.3,0
		c-0.3,0-0.6-0.2-0.8-0.5l-1-2.6c0,0.3-0.3,1.1-0.4,1.7l1.9,5h-2c-0.1,1.6-0.3,3.7-0.4,3.7h-3.3c-0.2,0-0.3-2.1-0.4-3.7h-2l1.9-5
		c0-0.6-0.3-1.4-0.4-1.7l-1,2.6c-0.1,0.3-0.4,0.5-0.8,0.5c-0.1,0-0.2,0-0.3,0c-0.4-0.2-0.6-0.6-0.5-1l1.9-5.2
		c0.2-0.6,1.7-1.2,3.2-1.2c1.5,0,2.9,0.6,3.2,1.2l1.9,5.2C38.5,44.5,38.3,45,37.8,45.1z M47,45.3c-0.1,0.8-0.5,0.6-0.7,1.5
		c-0.2,1.2-0.5,3.7-0.9,4.9c-0.2,0.6-0.3,0.7-0.6,0.7h-2.6c-0.3,0-0.4-0.1-0.6-0.7c-0.4-1.2-0.7-3.7-0.9-4.9
		c-0.2-0.8-0.5-0.7-0.7-1.5c-0.6-3.5-0.3-6.2-0.3-6.2c0-0.8,1.8-1.5,3.8-1.5c1.9,0,3.8,0.7,3.8,1.5C47.3,39.2,47.6,41.8,47,45.3z
		 M53.8,47.7c-0.1,0.5-0.3,0.4-0.4,1c-0.2,0.8-0.4,2.4-0.6,3.2c-0.1,0.4-0.2,0.5-0.4,0.5h-1.7c-0.2,0-0.3-0.1-0.4-0.5
		c-0.2-0.8-0.4-2.4-0.6-3.2c-0.1-0.6-0.4-0.4-0.4-1c-0.4-2.3-0.2-4.1-0.2-4.1c0-0.5,1.2-1,2.5-1c1.3,0,2.5,0.4,2.5,1
		C54,43.7,54.1,45.4,53.8,47.7z"/>
	<polygon fill="#FFFFFF" points="53.5,28.3 53.5,20 46.8,20 46.8,22 	"/>
</g>
</svg>
