<?xml version="1.0" encoding="utf-8"?>
<!-- Generator: Adobe Illustrator 18.1.1, SVG Export Plug-In . SVG Version: 6.00 Build 0)  -->
<svg version="1.1" id="Layer_1" xmlns="http://www.w3.org/2000/svg" xmlns:xlink="http://www.w3.org/1999/xlink" x="0px" y="0px"
	  viewBox="0 0 75 75" enable-background="new 0 0 75 75" xml:space="preserve">
<g>
	<circle fill="#232C64" cx="37.8" cy="37.8" r="33.8"/>
	<g>
		<path fill="#FFFFFF" d="M62.4,20.7H13.3c-0.6,0-1.1,0.5-1.1,1.1v29.3c0,0.6,0.5,1.1,1.1,1.1h49.1c0.6,0,1.1-0.5,1.1-1.1V21.8
			C63.5,21.2,63,20.7,62.4,20.7z M18.5,50.6h-3v-1.2h3V50.6z M60.2,47.9H15.5V22.6h44.6V47.9z"/>
		<path fill="#FFFFFF" d="M49,57H26.7c-0.9,0-1.6,0.7-1.6,1.6h25.4C50.5,57.7,49.8,57,49,57z"/>
		<rect x="31.2" y="53.4" fill="#FFFFFF" width="13.2" height="3.9"/>
	</g>
</g>
</svg>
