<?xml version="1.0" encoding="utf-8"?>
<!-- Generator: Adobe Illustrator 18.1.1, SVG Export Plug-In . SVG Version: 6.00 Build 0)  -->
<svg version="1.1" id="Layer_1" xmlns="http://www.w3.org/2000/svg" xmlns:xlink="http://www.w3.org/1999/xlink" x="0px" y="0px"
	  viewBox="0 0 75 75" enable-background="new 0 0 75 75" xml:space="preserve">
<g>
	<circle fill="#232C64" cx="37.1" cy="37.5" r="33.8"/>
	<path fill="#FFFFFF" d="M26.1,47.4L26.1,47.4c-1,0-1.7,0.7-1.8,1.6c0,0.9,0.7,1.7,1.6,1.8h0.1c0.9,0,1.7-0.7,1.7-1.6
		c0-0.5-0.1-0.9-0.5-1.2C27,47.6,26.6,47.5,26.1,47.4z M32.4,48.3c-0.1-0.8-0.4-1.6-0.8-2.3c0.5-0.5,1.1-0.9,1.5-1.5
		c-0.4-0.7-0.9-1.2-1.5-1.8c-0.6,0.4-1.1,0.8-1.7,1.3c-0.5-0.4-1.1-0.7-1.8-1c-0.1,0-0.2-0.1-0.4-0.1c0.1-0.7,0.1-1.4,0-2.1
		c-0.8-0.2-1.6-0.2-2.3-0.2c-0.1,0.7-0.2,1.4-0.2,2.1c-0.8,0.1-1.6,0.4-2.3,0.8c-0.5-0.5-0.9-1.1-1.5-1.5c-0.7,0.4-1.2,0.9-1.8,1.5
		c0.4,0.6,0.8,1.1,1.3,1.7c-0.4,0.5-0.7,1.1-1,1.8c0,0.1-0.1,0.2-0.1,0.4c-0.7-0.1-1.4-0.1-2.1,0c-0.2,0.8-0.2,1.6-0.2,2.3
		c0.7,0.1,1.4,0.2,2.1,0.2c0.1,0.8,0.4,1.6,0.8,2.3c-0.5,0.5-1.1,0.9-1.5,1.5c0.4,0.7,0.9,1.2,1.5,1.8c0.6-0.4,1.1-0.8,1.7-1.3
		c0.5,0.4,1.1,0.7,1.8,1c0.1,0,0.2,0.1,0.4,0.1c-0.1,0.7-0.1,1.4,0,2.1c0.8,0.2,1.6,0.2,2.3,0.2c0.1-0.7,0.2-1.4,0.2-2.1
		c0.8-0.1,1.6-0.4,2.3-0.8c0.5,0.5,0.9,1.1,1.5,1.5c0.7-0.4,1.2-0.9,1.8-1.5c-0.4-0.6-0.8-1.1-1.3-1.7c0.4-0.5,0.7-1.1,1-1.8
		c0-0.1,0.1-0.3,0.1-0.4c0.7,0.1,1.4,0.1,2.1,0c0.2-0.8,0.2-1.6,0.2-2.3C33.8,48.4,33.1,48.3,32.4,48.3z M26.1,51.7L26.1,51.7
		c-1.5-0.1-2.6-1.2-2.5-2.6c0-1.4,1.2-2.5,2.5-2.5l0.1,0c0.7,0,1.3,0.3,1.8,0.8c0.5,0.5,0.7,1.1,0.7,1.8
		C28.6,50.6,27.5,51.7,26.1,51.7z M42.9,42.4c0.8-0.4,1.6-0.9,2.3-1.5c-0.4-0.8-0.8-1.5-1.2-2.3c0.8-0.7,1.4-1.4,2-2.3
		c0.8,0.3,1.6,0.6,2.4,0.8c0.4-0.8,0.8-1.6,1.1-2.5c-0.7-0.5-1.5-0.9-2.3-1.3c0.2-0.8,0.4-1.6,0.4-2.5c0-0.2,0-0.3,0-0.5
		c0.8-0.2,1.7-0.4,2.5-0.6c0-0.9-0.2-1.8-0.4-2.7c-0.9,0-1.7,0.1-2.6,0.2c-0.3-1-0.7-1.9-1.3-2.7c0.6-0.6,1.2-1.2,1.8-1.9
		c-0.5-0.7-1.1-1.4-1.8-2c-0.7,0.5-1.4,1-2.1,1.5c-0.8-0.7-1.6-1.2-2.6-1.6c0.2-0.8,0.4-1.7,0.5-2.5c-0.8-0.3-1.7-0.6-2.6-0.7
		c-0.3,0.8-0.6,1.6-0.9,2.4c-0.3,0-0.7-0.1-1-0.1c-0.7,0-1.4,0-2,0.1c-0.3-0.8-0.6-1.6-1-2.4c-0.9,0.2-1.8,0.4-2.6,0.8
		c0.1,0.9,0.3,1.7,0.5,2.5c-0.9,0.4-1.8,1-2.5,1.7c-0.7-0.5-1.4-1-2.1-1.5c-0.6,0.6-1.2,1.3-1.7,2.1c0.6,0.6,1.2,1.3,1.8,1.8
		c-0.5,0.8-0.9,1.8-1.2,2.8c-0.9-0.1-1.7-0.1-2.6-0.1c-0.2,0.9-0.3,1.8-0.4,2.7c0.8,0.2,1.7,0.4,2.5,0.6c0,1,0.2,2,0.5,3
		c-0.8,0.4-1.5,0.8-2.2,1.3c0.3,0.9,0.7,1.7,1.1,2.4c0.8-0.3,1.6-0.6,2.4-0.9c0.6,0.8,1.2,1.6,2,2.3c-0.4,0.7-0.8,1.5-1.2,2.3
		c0.7,0.6,1.5,1,2.3,1.4c0.6-0.7,1.1-1.3,1.6-2.1c0.9,0.4,1.9,0.7,2.9,0.8c0,0.9,0.1,1.7,0.3,2.6c0.9,0.1,1.8,0.1,2.7,0
		c0.1-0.9,0.2-1.7,0.2-2.6c1-0.2,2-0.5,2.9-0.9C41.8,41.1,42.3,41.8,42.9,42.4z M36.7,34.9L36.7,34.9l-0.2,0c-1.2,0-2.2-0.5-3-1.4
		c-0.8-0.9-1.2-2-1.2-3.1c0.1-2.4,2-4.2,4.4-4.2l0.2,0c1.2,0,2.2,0.5,3,1.4c0.8,0.9,1.2,2,1.2,3.1C41,33.1,39.1,34.9,36.7,34.9z
		 M36.8,27.7l-0.1,0c-1.6,0-2.8,1.2-2.9,2.8c0,0.8,0.2,1.5,0.8,2.1c0.5,0.6,1.2,0.9,2,0.9l0.1,0c1.6,0,2.8-1.2,2.9-2.8
		c0-0.8-0.2-1.5-0.8-2.1C38.3,28,37.6,27.7,36.8,27.7z M48.1,47.4L48.1,47.4c-1,0-1.7,0.7-1.8,1.6c0,0.9,0.7,1.7,1.6,1.8h0.1
		c0.9,0,1.7-0.7,1.7-1.6c0-0.5-0.1-0.9-0.5-1.2C49,47.6,48.6,47.5,48.1,47.4z M54.4,50.1c0-0.1,0-0.3,0-0.4c0.7-0.1,1.4-0.2,2.1-0.3
		c0-0.8-0.1-1.6-0.2-2.3c-0.7,0-1.4,0-2.1,0.1c-0.2-0.8-0.6-1.5-1.2-2.1c0.4-0.5,0.9-1.1,1.3-1.7c-0.5-0.6-1.1-1.1-1.8-1.5
		c-0.5,0.5-1,1-1.4,1.6c-0.6-0.3-1.2-0.5-1.9-0.6c-0.1,0-0.3,0-0.4,0c-0.1-0.7-0.2-1.4-0.3-2.1c-0.8,0-1.6,0.1-2.3,0.2
		c0,0.7,0,1.4,0.1,2.1c-0.8,0.2-1.5,0.6-2.1,1.2c-0.5-0.5-1.1-0.9-1.7-1.3c-0.6,0.5-1.1,1.1-1.5,1.8c0.5,0.5,1,1,1.6,1.4
		c-0.3,0.6-0.5,1.2-0.6,1.9c0,0.1,0,0.3,0,0.4c-0.7,0.1-1.4,0.2-2.1,0.3c0,0.8,0.1,1.6,0.2,2.3c0.7,0,1.4,0,2.1-0.1
		c0.2,0.8,0.6,1.5,1.2,2.1c-0.4,0.5-0.9,1.1-1.3,1.7c0.5,0.6,1.1,1.1,1.8,1.5c0.5-0.5,1-1,1.4-1.6c0.6,0.3,1.2,0.5,1.9,0.6
		c0.1,0,0.3,0,0.4,0c0.1,0.7,0.2,1.4,0.3,2.1c0.8,0,1.6-0.1,2.3-0.2c0-0.7,0-1.4-0.1-2.1c0.8-0.3,1.5-0.6,2.1-1.2
		c0.5,0.5,1.1,0.9,1.7,1.3c0.6-0.5,1.1-1.1,1.5-1.8c-0.5-0.5-1-1-1.6-1.4C54,51.5,54.3,50.8,54.4,50.1z M48.1,51.7L48.1,51.7
		c-1.5-0.1-2.6-1.2-2.5-2.6c0-1.4,1.2-2.5,2.5-2.5l0.1,0c0.7,0,1.3,0.3,1.8,0.8c0.5,0.5,0.7,1.1,0.7,1.8
		C50.6,50.6,49.5,51.7,48.1,51.7z"/>
</g>
</svg>
