<?xml version="1.0" encoding="utf-8"?>
<!-- Generator: Adobe Illustrator 18.1.1, SVG Export Plug-In . SVG Version: 6.00 Build 0)  -->
<svg version="1.1" id="Layer_1" xmlns="http://www.w3.org/2000/svg" xmlns:xlink="http://www.w3.org/1999/xlink" x="0px" y="0px"
	  viewBox="0 0 75 75" enable-background="new 0 0 75 75" xml:space="preserve">
<g>
	<circle fill="#232C64" cx="38" cy="37.8" r="33.8"/>
	<g>
		<path fill-rule="evenodd" clip-rule="evenodd" fill="#FFFFFF" d="M60.5,47.5c0,1.6-1.3,3-3,3h-3.4c-0.2-0.8-0.4-1.6-0.6-2.4h1.3
			c0.3,0,0.6-0.3,0.6-0.6c0-9.9,0-16.4,0-26.3c0-0.3-0.3-0.6-0.6-0.6c-11.6,0-21.2,0-32.8,0c-0.3,0-0.6,0.3-0.6,0.6v19.1
			c-1.1,1.1-2.1,2.5-2.9,3.9c-0.3,0.4-1.5,0.1-1.5-0.4V36V21.2c0-1.6,1.3-3,3-3c13.2,0,24.3,0,37.5,0c1.6,0,3,1.3,3,3V47.5
			L60.5,47.5z M22.9,48.1h15.6c-0.3,0.2-0.6,0.5-0.9,0.8c-0.3,0.5-0.4,1-0.4,1.6H22.7C22.7,49.7,22.8,48.9,22.9,48.1L22.9,48.1z
			 M57.1,34.3c0-0.5,0.4-0.9,0.9-0.9c0.5,0,0.9,0.4,0.9,0.9s-0.4,0.9-0.9,0.9C57.5,35.3,57.1,34.9,57.1,34.3L57.1,34.3z"/>
		<path fill-rule="evenodd" clip-rule="evenodd" fill="#FFFFFF" d="M40.5,42.4c-0.3-0.7,0.1-1.6,0.9-1.8c0.7-0.3,1.6,0.1,1.8,0.9
			c0.6,1.8,1.2,3.5,1.7,5.3c0.2-0.3,0.6-0.6,1-0.6c0.5-0.1,1.1,0.1,1.4,0.5c0.2-0.3,0.5-0.5,0.9-0.5c0.5-0.1,1.1,0.1,1.4,0.5
			c0.1-0.2,0.3-0.3,0.5-0.4c0.7-0.3,1.6,0,1.9,0.7c1.3,2.7,1.6,6.4,1.6,9.4c-0.9,1.3-5.4,2.7-8.7,2.2c-1.1-1.8-2.6-4.7-5.9-7
			c-0.7-0.4-0.9-1.3-0.4-2c0.4-0.7,1.3-0.9,2-0.4c1,0.6,1.8,1.3,2.5,2c-0.1-0.6-0.3-1.2-0.4-1.8C42,46.9,41.3,44.7,40.5,42.4
			L40.5,42.4z"/>
		<path fill-rule="evenodd" clip-rule="evenodd" fill="#FFFFFF" d="M16,37.8c-2.1,1.2-3,4.3-3.2,5.4c-0.2,3.3,0.2,6.6,0.5,9.9
			c1.2,0.4,5,0.7,7.7,0.3c0.8-2.2,0.5-3.8,1-6.2c0.3-1.6,1.6-3.2,2.6-4.4c0.5-0.6,0.6-1.5,0.1-2.1c-0.6-0.5-1.5-0.4-2.1,0.2
			c-1,0.9-2,2.3-2.9,3.9c-0.8,1.4-3.6,0.7-3.6-1V37.8L16,37.8z"/>
		<path fill-rule="evenodd" clip-rule="evenodd" fill="#FFFFFF" d="M37.8,37.3h1.7c1.4,0,1.4,2.1,0,2.1h-1.7
			C36.5,39.4,36.5,37.3,37.8,37.3L37.8,37.3z"/>
		<path fill-rule="evenodd" clip-rule="evenodd" fill="#FFFFFF" d="M31.6,37.3h1.7c1.4,0,1.4,2.1,0,2.1h-1.7
			C30.2,39.4,30.2,37.3,31.6,37.3L31.6,37.3z"/>
		<path fill-rule="evenodd" clip-rule="evenodd" fill="#FFFFFF" d="M44,37.3h1.7c1.4,0,1.4,2.1,0,2.1H44
			C42.7,39.4,42.7,37.3,44,37.3L44,37.3z"/>
		<path fill-rule="evenodd" clip-rule="evenodd" fill="#FFFFFF" d="M31.3,34.1c-0.3,0-0.6-0.3-0.6-0.6c0-0.3,0.3-0.6,0.6-0.6h15
			c0.3,0,0.6,0.3,0.6,0.6c0,0.3-0.3,0.6-0.6,0.6H31.3L31.3,34.1z"/>
		<path fill-rule="evenodd" clip-rule="evenodd" fill="#FFFFFF" d="M31.3,29.7c-0.3,0-0.6-0.3-0.6-0.6c0-0.3,0.3-0.6,0.6-0.6h15
			c0.3,0,0.6,0.3,0.6,0.6c0,0.3-0.3,0.6-0.6,0.6H31.3L31.3,29.7z"/>
		<path fill-rule="evenodd" clip-rule="evenodd" fill="#FFFFFF" d="M31.3,25.3c-0.3,0-0.6-0.3-0.6-0.6c0-0.3,0.3-0.6,0.6-0.6h15
			c0.3,0,0.6,0.3,0.6,0.6c0,0.3-0.3,0.6-0.6,0.6H31.3L31.3,25.3z"/>
	</g>
</g>
</svg>
