<?xml version="1.0" encoding="utf-8"?>
<!-- Generator: Adobe Illustrator 18.1.1, SVG Export Plug-In . SVG Version: 6.00 Build 0)  -->
<svg version="1.1" id="Layer_1" xmlns="http://www.w3.org/2000/svg" xmlns:xlink="http://www.w3.org/1999/xlink" x="0px" y="0px"
	  viewBox="0 0 75 75" enable-background="new 0 0 75 75" xml:space="preserve">
<g>
	<circle fill="#232C64" cx="37.1" cy="37.5" r="33.8"/>
	<circle fill="#FFFFFF" cx="37.1" cy="37.5" r="23.9"/>
	<circle fill="none" stroke="#FFFFFF" stroke-width="1.0238" stroke-miterlimit="10" cx="37.1" cy="37.5" r="25.8"/>
	<g>
		<path fill="#232C64" d="M23.5,38.3c3.6,0,16.6,0,18.4,0c2.6,0,2.7,0.2,2.8,1.3c0.1,1.1,0.5,1.8,2.3,1.8c1.4,0,4.5-0.2,5.6,0.1
			c1.1,0.3,3.4,1.9,1.1,5.9c-1.6,2.9-5.2,7.3-11.9,8.9c-5,1.2-10,0.3-12.5-1.2c-7-3.9-8.2-7.2-9.7-11C19.1,43.2,17.2,38.3,23.5,38.3
			z"/>
		<g>
			<path fill="#232C64" d="M46.7,34.3c0,0.5-0.4,0.9-0.9,0.9h-17c-0.5,0-0.9-0.4-0.9-0.9V26c0-0.5,0.4-0.9,0.9-0.9h17
				c0.5,0,0.9,0.4,0.9,0.9V34.3z"/>
		</g>
		<path fill="#232C64" d="M27.9,20.3c5.6-3.5,14-3.1,18.8-0.1c0.2,0.2,0.2,0.3,0.2,0.6c0,0.6,0,3.5,0,3.5H27.5c0,0,0-2.9,0-3.4
			C27.5,20.6,27.6,20.4,27.9,20.3z"/>
		<circle fill="#232C64" cx="48" cy="37.8" r="1.4"/>
		<circle fill="#232C64" cx="50.9" cy="37.8" r="1.4"/>
		<path fill="#FFFFFF" d="M32.6,29.7L32.3,30l0.1,0.1h1.8l0.1-0.1l-0.3-0.3H32.6z M35.8,29.7L35.5,30l0.1,0.1h1.8l0.1-0.1l-0.3-0.3
			H35.8z M38.7,29.7L38.5,30l0.1,0.1h1.8l0.1-0.1l-0.3-0.3H38.7z M42,29.7L41.7,30l0.1,0.1h1.8l0.1-0.1l-0.3-0.3H42z M30.9,28.2
			l-0.2,0.2v1.2l0.3,0.3l0.1-0.1v-1.5L30.9,28.2L30.9,28.2z M34.2,28.2L34,28.4v1.2l0.3,0.3l0.1-0.1v-1.5L34.2,28.2L34.2,28.2z
			 M35.5,28.2L35.5,28.2l-0.1,1.6l0.1,0.1l0.3-0.3v-1.2L35.5,28.2L35.5,28.2z M37.4,28.2l-0.2,0.2v1.2l0.3,0.3l0.1-0.1v-1.5
			L37.4,28.2L37.4,28.2z M40.4,28.2l-0.2,0.2v1.2l0.3,0.3l0.1-0.1v-1.5L40.4,28.2L40.4,28.2z M43.6,28.2l-0.2,0.2v1.2l0.3,0.3
			l0.1-0.1v-1.5L43.6,28.2L43.6,28.2z M32.5,28l-0.2,0.2l0.2,0.2h0.6l0-0.2l0-0.2H32.5z M33.3,28l0,0.2l0,0.2h0.6l0.2-0.2L33.9,28
			H33.3z M35.8,28l-0.2,0.2l0.2,0.2h0.6l0-0.2l0-0.2H35.8z M36.6,28l0,0.2l0,0.2h0.6l0.2-0.2L37.2,28H36.6z M38.7,28l-0.2,0.2
			l0.2,0.2h0.6l0-0.2l0-0.2H38.7z M39.5,28l0,0.2l0,0.2h0.6l0.2-0.2L40.1,28H39.5z M42,28l-0.2,0.2l0.2,0.2h0.6l0-0.2l0-0.2H42z
			 M42.8,28l0,0.2l0,0.2h0.6l0.2-0.2L43.4,28H42.8z M30.4,26.8L30,27.7V28h0.3l0.4-0.9v-0.3H30.4z M30.7,26.8V28l0.2,0.2H31l0.1-0.1
			v-1.5L31,26.5L30.7,26.8z M32.1,26.6v1.5l0.1,0.1h0.1l0.2-0.2v-1.2L32.1,26.6L32.1,26.6z M35.4,26.6v1.5l0.1,0.1h0.1l0.2-0.2v-1.2
			L35.4,26.6L35.4,26.6z M40.2,26.8V28l0.2,0.2h0.1l0.1-0.1v-1.5l-0.1-0.1L40.2,26.8z M41.6,26.6v1.5l0.1,0.1h0.1l0.2-0.2v-1.2
			L41.6,26.6L41.6,26.6z M43.4,26.8V28l0.2,0.2h0.1l0.1-0.1v-1.5l-0.1-0.1L43.4,26.8z M32.4,26.3L32.4,26.3l0.2,0.4h1.4l0.3-0.3
			l-0.1-0.1H32.4z M35.6,26.3L35.6,26.3l0.2,0.4h1.4l0.3-0.3l-0.1-0.1H35.6z M38.6,26.3L38.6,26.3l0.2,0.4h1.4l0.3-0.3l-0.1-0.1
			H38.6z M41.8,26.3L41.8,26.3l0.2,0.4h1.4l0.3-0.3l-0.1-0.1H41.8z"/>
	</g>
</g>
</svg>
