<?xml version="1.0" encoding="utf-8"?>
<!-- Generator: Adobe Illustrator 18.1.1, SVG Export Plug-In . SVG Version: 6.00 Build 0)  -->
<svg version="1.1" id="Layer_1" xmlns="http://www.w3.org/2000/svg" xmlns:xlink="http://www.w3.org/1999/xlink" x="0px" y="0px"
	  viewBox="0 0 75 75" enable-background="new 0 0 75 75" xml:space="preserve">
<g>
	<circle fill="#232C64" cx="37.6" cy="37.2" r="33.8"/>
	<g>
		<polygon fill="#FFFFFF" points="52,30.6 52,23.3 46.1,23.3 46.1,25 		"/>
		<g>
			<polygon fill="#FFFFFF" points="37.5,18.7 16.4,38.8 18.8,41.4 19.8,40.5 19.8,55 55.2,55 55.2,40.5 56.2,41.4 58.7,38.8 			"/>
			<rect x="28" y="37" fill="#232C64" width="8.7" height="16.4"/>
			<rect x="41.9" y="37" fill="#232C64" width="5.8" height="6"/>
			<g>
				<line fill="none" stroke="#FFFFFF" stroke-width="0.4201" stroke-miterlimit="10" x1="13.2" y1="55.1" x2="17.4" y2="55.1"/>
				<line fill="none" stroke="#FFFFFF" stroke-width="0.4201" stroke-miterlimit="10" x1="13.2" y1="18.8" x2="17.4" y2="18.8"/>
				<g>
					<g>
						<line fill="none" stroke="#FFFFFF" stroke-width="0.4201" stroke-miterlimit="10" x1="15.3" y1="50.6" x2="15.3" y2="23.2"/>
						<g>
							<polygon fill="#FFFFFF" points="15.3,53.5 17,49.3 15.3,50.3 13.6,49.3 							"/>
						</g>
						<g>
							<polygon fill="#FFFFFF" points="15.3,20.3 17,24.4 15.3,23.5 13.6,24.4 							"/>
						</g>
					</g>
				</g>
			</g>
			<g>
				<line fill="none" stroke="#FFFFFF" stroke-width="0.4201" stroke-miterlimit="10" x1="59.7" y1="55.1" x2="63.8" y2="55.1"/>
				<line fill="none" stroke="#FFFFFF" stroke-width="0.4201" stroke-miterlimit="10" x1="59.7" y1="38.4" x2="63.8" y2="38.4"/>
				<g>
					<g>
						<line fill="none" stroke="#FFFFFF" stroke-width="0.4201" stroke-miterlimit="10" x1="61.8" y1="50.6" x2="61.8" y2="43"/>
						<g>
							<polygon fill="#FFFFFF" points="61.8,53.5 63.5,49.3 61.8,50.3 60.1,49.3 							"/>
						</g>
						<g>
							<polygon fill="#FFFFFF" points="61.8,40.1 63.5,44.2 61.8,43.3 60.1,44.2 							"/>
						</g>
					</g>
				</g>
			</g>
			<g>
				<g>
					<line fill="none" stroke="#FFFFFF" stroke-width="0.4201" stroke-miterlimit="10" x1="55" y1="19" x2="55" y2="14.9"/>
					<line fill="none" stroke="#FFFFFF" stroke-width="0.4201" stroke-miterlimit="10" x1="20" y1="19" x2="20" y2="14.9"/>
				</g>
				<g>
					<g>
						<line fill="none" stroke="#FFFFFF" stroke-width="0.4201" stroke-miterlimit="10" x1="50.5" y1="16.9" x2="24.1" y2="16.9"/>
						<g>
							<polygon fill="#FFFFFF" points="53.5,16.9 49.3,15.2 50.3,16.9 49.3,18.7 							"/>
						</g>
						<g>
							<polygon fill="#FFFFFF" points="21.1,16.9 25.3,15.2 24.3,16.9 25.3,18.7 							"/>
						</g>
					</g>
				</g>
			</g>
		</g>
	</g>
</g>
</svg>
